<svg xmlns="http://www.w3.org/2000/svg" width="13.157" height="17.516" viewBox="0 0 13.157 17.516"><defs><style>.a{fill:#132647;}</style></defs><g transform="translate(-27 -19.38)"><path class="a" d="M39.585,76.62H27.572a.572.572,0,1,0,0,1.144H39.585a.572.572,0,1,0,0-1.144Z" transform="translate(0 -40.868)"/><path class="a" d="M37.331,34.345a.591.591,0,0,0,.089.072l.031.014.057.029.057.017.049.014a.574.574,0,0,0,.223,0l.049-.014.057-.017.08-.029.043-.023a.591.591,0,0,0,.089-.072l4.325-4.33a.572.572,0,0,0-.809-.809h0L38.309,32.56V19.952a.572.572,0,1,0-1.144,0V32.56L33.8,29.2a.572.572,0,0,0-.809.809Z" transform="translate(-4.158 0)"/></g></svg>