<svg xmlns="http://www.w3.org/2000/svg" width="29.16" height="20.696" viewBox="0 0 29.16 20.696"><defs><style>.a{fill:#132647;}</style></defs><path class="a" d="M9.435,0A4.875,4.875,0,0,0,4.691,3.769H1.12a1.12,1.12,0,1,0,0,2.24H4.691a4.875,4.875,0,0,0,9.487,0H28.04a1.12,1.12,0,0,0,0-2.24H14.178A4.875,4.875,0,0,0,9.435,0Zm0,7.537A2.635,2.635,0,1,1,12.07,4.9,2.635,2.635,0,0,1,9.435,7.537Z"/><path class="a" d="M19.765,8.3a4.875,4.875,0,0,0-4.744,3.769H1.12a1.12,1.12,0,1,0,0,2.24H14.982a4.875,4.875,0,0,0,9.487,0H28.04a1.12,1.12,0,0,0,0-2.24H24.469A4.876,4.876,0,0,0,19.765,8.3Zm0,7.511A2.635,2.635,0,1,1,22.4,13.175,2.635,2.635,0,0,1,19.765,15.811Z" transform="translate(0 2.637)"/></svg>