<svg xmlns="http://www.w3.org/2000/svg" width="15.369" height="11.58" viewBox="0 0 15.369 11.58"><defs><style>.a{fill:#132647;}</style></defs><g transform="translate(0 0)"><path class="a" d="M15.692,14.953a.5.5,0,0,1,.268.133L21.2,19.91a.622.622,0,0,1,.064.816.546.546,0,0,1-.064.071L15.96,25.622a.491.491,0,0,1-.738-.079.616.616,0,0,1-.119-.361V23.258a12.433,12.433,0,0,0-8.218,3.13.491.491,0,0,1-.739-.062.626.626,0,0,1-.1-.553c1.468-5,5.88-7.207,9.058-8.166V15.532a.555.555,0,0,1,.52-.584A.466.466,0,0,1,15.692,14.953Zm.459,1.809v1.279a.572.572,0,0,1-.393.561c-2.568.718-6.05,2.326-7.884,5.6a14.132,14.132,0,0,1,7.781-2.1.557.557,0,0,1,.5.579v1.273l3.9-3.589-3.9-3.595Z" transform="translate(-6.019 -14.948)"/></g></svg>